<?xml version="1.0" encoding="utf-8" standalone="no"?>
<!DOCTYPE svg PUBLIC "-//W3C//DTD SVG 1.1//EN"
  "http://www.w3.org/Graphics/SVG/1.1/DTD/svg11.dtd">
<!-- Created with matplotlib (https://matplotlib.org/) -->
<svg height="360pt" version="1.1" viewBox="0 0 864 360" width="864pt" xmlns="http://www.w3.org/2000/svg" xmlns:xlink="http://www.w3.org/1999/xlink">
 <defs>
  <style type="text/css">
*{stroke-linecap:butt;stroke-linejoin:round;}
  </style>
 </defs>
 <g id="figure_1">
  <g id="patch_1">
   <path d="M 0 360 
L 864 360 
L 864 0 
L 0 0 
z
" style="fill:#ffffff;"/>
  </g>
  <g id="axes_1">
   <g id="patch_2">
    <path d="M 108 315 
L 777.6 315 
L 777.6 43.2 
L 108 43.2 
z
" style="fill:#ffffff;"/>
   </g>
   <g id="PathCollection_1">
    <defs>
     <path d="M 0 0.223607 
C 0.059301 0.223607 0.116182 0.200046 0.158114 0.158114 
C 0.200046 0.116182 0.223607 0.059301 0.223607 0 
C 0.223607 -0.059301 0.200046 -0.116182 0.158114 -0.158114 
C 0.116182 -0.200046 0.059301 -0.223607 0 -0.223607 
C -0.059301 -0.223607 -0.116182 -0.200046 -0.158114 -0.158114 
C -0.200046 -0.116182 -0.223607 -0.059301 -0.223607 0 
C -0.223607 0.059301 -0.200046 0.116182 -0.158114 0.158114 
C -0.116182 0.200046 -0.059301 0.223607 0 0.223607 
z
" id="m2a7454067b" style="stroke:#808080;stroke-opacity:0.8;"/>
    </defs>
    <g clip-path="url(#p5c989c0249)">
     <use style="fill:#808080;fill-opacity:0.8;stroke:#808080;stroke-opacity:0.8;" x="554.4" xlink:href="#m2a7454067b" y="190.433295"/>
     <use style="fill:#808080;fill-opacity:0.8;stroke:#808080;stroke-opacity:0.8;" x="141.48" xlink:href="#m2a7454067b" y="296.728761"/>
     <use style="fill:#808080;fill-opacity:0.8;stroke:#808080;stroke-opacity:0.8;" x="688.32" xlink:href="#m2a7454067b" y="90.043134"/>
     <use style="fill:#808080;fill-opacity:0.8;stroke:#808080;stroke-opacity:0.8;" x="755.28" xlink:href="#m2a7454067b" y="84.13783"/>
     <use style="fill:#808080;fill-opacity:0.8;stroke:#808080;stroke-opacity:0.8;" x="654.84" xlink:href="#m2a7454067b" y="175.670036"/>
     <use style="fill:#808080;fill-opacity:0.8;stroke:#808080;stroke-opacity:0.8;" x="654.84" xlink:href="#m2a7454067b" y="78.232526"/>
     <use style="fill:#808080;fill-opacity:0.8;stroke:#808080;stroke-opacity:0.8;" x="308.88" xlink:href="#m2a7454067b" y="219.959813"/>
     <use style="fill:#808080;fill-opacity:0.8;stroke:#808080;stroke-opacity:0.8;" x="654.84" xlink:href="#m2a7454067b" y="84.13783"/>
     <use style="fill:#808080;fill-opacity:0.8;stroke:#808080;stroke-opacity:0.8;" x="554.4" xlink:href="#m2a7454067b" y="299.681412"/>
     <use style="fill:#808080;fill-opacity:0.8;stroke:#808080;stroke-opacity:0.8;" x="141.48" xlink:href="#m2a7454067b" y="219.959813"/>
     <use style="fill:#808080;fill-opacity:0.8;stroke:#808080;stroke-opacity:0.8;" x="141.48" xlink:href="#m2a7454067b" y="208.149206"/>
     <use style="fill:#808080;fill-opacity:0.8;stroke:#808080;stroke-opacity:0.8;" x="398.16" xlink:href="#m2a7454067b" y="219.959813"/>
     <use style="fill:#808080;fill-opacity:0.8;stroke:#808080;stroke-opacity:0.8;" x="654.84" xlink:href="#m2a7454067b" y="90.043134"/>
     <use style="fill:#808080;fill-opacity:0.8;stroke:#808080;stroke-opacity:0.8;" x="308.88" xlink:href="#m2a7454067b" y="261.296939"/>
     <use style="fill:#808080;fill-opacity:0.8;stroke:#808080;stroke-opacity:0.8;" x="141.48" xlink:href="#m2a7454067b" y="217.007162"/>
     <use style="fill:#808080;fill-opacity:0.8;stroke:#808080;stroke-opacity:0.8;" x="654.84" xlink:href="#m2a7454067b" y="87.090482"/>
     <use style="fill:#808080;fill-opacity:0.8;stroke:#808080;stroke-opacity:0.8;" x="654.84" xlink:href="#m2a7454067b" y="87.090482"/>
     <use style="fill:#808080;fill-opacity:0.8;stroke:#808080;stroke-opacity:0.8;" x="141.48" xlink:href="#m2a7454067b" y="219.959813"/>
     <use style="fill:#808080;fill-opacity:0.8;stroke:#808080;stroke-opacity:0.8;" x="654.84" xlink:href="#m2a7454067b" y="134.332911"/>
     <use style="fill:#808080;fill-opacity:0.8;stroke:#808080;stroke-opacity:0.8;" x="141.48" xlink:href="#m2a7454067b" y="219.959813"/>
     <use style="fill:#808080;fill-opacity:0.8;stroke:#808080;stroke-opacity:0.8;" x="654.84" xlink:href="#m2a7454067b" y="90.043134"/>
     <use style="fill:#808080;fill-opacity:0.8;stroke:#808080;stroke-opacity:0.8;" x="453.96" xlink:href="#m2a7454067b" y="128.427607"/>
     <use style="fill:#808080;fill-opacity:0.8;stroke:#808080;stroke-opacity:0.8;" x="688.32" xlink:href="#m2a7454067b" y="90.043134"/>
     <use style="fill:#808080;fill-opacity:0.8;stroke:#808080;stroke-opacity:0.8;" x="654.84" xlink:href="#m2a7454067b" y="78.232526"/>
     <use style="fill:#808080;fill-opacity:0.8;stroke:#808080;stroke-opacity:0.8;" x="654.84" xlink:href="#m2a7454067b" y="84.13783"/>
     <use style="fill:#808080;fill-opacity:0.8;stroke:#808080;stroke-opacity:0.8;" x="453.96" xlink:href="#m2a7454067b" y="122.522304"/>
     <use style="fill:#808080;fill-opacity:0.8;stroke:#808080;stroke-opacity:0.8;" x="554.4" xlink:href="#m2a7454067b" y="134.332911"/>
    </g>
   </g>
   <g id="PolyCollection_1">
    <path clip-path="url(#p5c989c0249)" d="M 110.785901 228.816738 
L 110.785901 288.834393 
L 117.605983 286.703575 
L 124.426066 284.572757 
L 131.246149 282.438998 
L 138.066232 280.304186 
L 144.886315 278.169374 
L 151.706397 276.033188 
L 158.52648 273.89382 
L 165.346563 271.754452 
L 172.166646 269.570979 
L 178.986729 267.257835 
L 185.806812 265.172358 
L 192.626894 263.204849 
L 199.446977 261.081173 
L 206.26706 258.950667 
L 213.087143 256.8155 
L 219.907226 254.675021 
L 226.727308 252.350702 
L 233.547391 249.933618 
L 240.367474 247.90298 
L 247.187557 245.607095 
L 254.00764 243.309558 
L 260.827723 241.085465 
L 267.647805 239.225223 
L 274.467888 237.364981 
L 281.287971 235.42564 
L 288.108054 233.115653 
L 294.928137 230.801619 
L 301.748219 228.457336 
L 308.568302 226.224553 
L 315.388385 224.002936 
L 322.208468 221.858893 
L 329.028551 219.873213 
L 335.848634 217.79412 
L 342.668716 215.544819 
L 349.488799 213.295378 
L 356.308882 211.043717 
L 363.128965 209.378446 
L 369.949048 207.707858 
L 376.76913 205.583066 
L 383.589213 203.447041 
L 390.409296 201.504804 
L 397.229379 199.170158 
L 404.049462 197.034524 
L 410.869545 194.911038 
L 417.689627 192.776895 
L 424.50971 190.902599 
L 431.329793 189.108479 
L 438.149876 187.330177 
L 444.969959 185.556007 
L 451.790041 183.757706 
L 458.610124 181.845466 
L 465.430207 180.000569 
L 472.25029 178.359089 
L 479.070373 176.672193 
L 485.890455 175.14656 
L 492.710538 173.545845 
L 499.530621 171.927848 
L 506.350704 170.318486 
L 513.170787 168.711983 
L 519.99087 167.103598 
L 526.810952 165.449005 
L 533.631035 163.581704 
L 540.451118 161.806354 
L 547.271201 160.350961 
L 554.091284 158.914299 
L 560.911366 157.197398 
L 567.731449 155.559172 
L 574.551532 154.075164 
L 581.371615 152.706974 
L 588.191698 151.03493 
L 595.011781 149.428962 
L 601.831863 147.819212 
L 608.651946 146.20795 
L 615.472029 144.756637 
L 622.292112 143.218204 
L 629.112195 141.695447 
L 635.932277 140.28069 
L 642.75236 138.865933 
L 649.572443 137.451175 
L 656.392526 136.036418 
L 663.212609 134.56537 
L 670.032692 132.948468 
L 676.852774 131.373379 
L 683.672857 129.994633 
L 690.49294 128.65937 
L 697.313023 127.360797 
L 704.133106 126.05579 
L 710.953188 124.716482 
L 717.773271 123.303602 
L 724.593354 121.888845 
L 731.413437 120.474087 
L 738.23352 119.05933 
L 745.053603 117.644573 
L 751.873685 116.229462 
L 758.693768 114.689688 
L 765.513851 113.062713 
L 772.333934 111.68276 
L 779.154017 110.335693 
L 785.974099 108.988625 
L 785.974099 55.554545 
L 785.974099 55.554545 
L 779.154017 57.714085 
L 772.333934 59.931624 
L 765.513851 62.061179 
L 758.693768 64.361861 
L 751.873685 66.373984 
L 745.053603 68.613657 
L 738.23352 70.736008 
L 731.413437 72.794322 
L 724.593354 74.770409 
L 717.773271 76.819822 
L 710.953188 78.866325 
L 704.133106 80.875456 
L 697.313023 82.973998 
L 690.49294 85.025304 
L 683.672857 87.073535 
L 676.852774 89.086094 
L 670.032692 91.003443 
L 663.212609 92.862128 
L 656.392526 94.751934 
L 649.572443 96.836018 
L 642.75236 98.81219 
L 635.932277 100.676399 
L 629.112195 102.608481 
L 622.292112 104.512728 
L 615.472029 106.205632 
L 608.651946 108.234576 
L 601.831863 110.161953 
L 595.011781 112.115338 
L 588.191698 114.042587 
L 581.371615 115.993252 
L 574.551532 117.791702 
L 567.731449 119.540223 
L 560.911366 121.287627 
L 554.091284 123.035032 
L 547.271201 124.783474 
L 540.451118 126.496905 
L 533.631035 128.192882 
L 526.810952 129.998004 
L 519.99087 131.635969 
L 513.170787 133.269627 
L 506.350704 134.960328 
L 499.530621 136.678459 
L 492.710538 138.508224 
L 485.890455 140.313083 
L 479.070373 142.112624 
L 472.25029 143.917414 
L 465.430207 145.744128 
L 458.610124 147.51524 
L 451.790041 149.293992 
L 444.969959 150.989902 
L 438.149876 152.632585 
L 431.329793 154.194528 
L 424.50971 155.870475 
L 417.689627 157.573202 
L 410.869545 159.179235 
L 404.049462 160.844275 
L 397.229379 162.428598 
L 390.409296 163.982851 
L 383.589213 165.528801 
L 376.76913 167.09883 
L 369.949048 168.657848 
L 363.128965 170.240662 
L 356.308882 171.892287 
L 349.488799 173.487126 
L 342.668716 175.198911 
L 335.848634 176.859431 
L 329.028551 178.347922 
L 322.208468 180.105673 
L 315.388385 181.849614 
L 308.568302 183.467109 
L 301.748219 185.19615 
L 294.928137 186.925191 
L 288.108054 188.433858 
L 281.287971 189.899042 
L 274.467888 191.393949 
L 267.647805 192.981485 
L 260.827723 194.658137 
L 254.00764 196.430244 
L 247.187557 197.981258 
L 240.367474 199.403326 
L 233.547391 201.083285 
L 226.727308 202.634299 
L 219.907226 204.116627 
L 213.087143 205.702671 
L 206.26706 207.281378 
L 199.446977 208.781699 
L 192.626894 210.314727 
L 185.806812 211.932654 
L 178.986729 213.483103 
L 172.166646 215.034562 
L 165.346563 216.586022 
L 158.52648 218.136794 
L 151.706397 219.686021 
L 144.886315 221.272989 
L 138.066232 222.786101 
L 131.246149 224.333063 
L 124.426066 225.722566 
L 117.605983 227.241027 
L 110.785901 228.816738 
z
" style="fill:#808080;fill-opacity:0.15;"/>
   </g>
   <g id="PathCollection_2">
    <defs>
     <path d="M 0 3 
C 0.795609 3 1.55874 2.683901 2.12132 2.12132 
C 2.683901 1.55874 3 0.795609 3 0 
C 3 -0.795609 2.683901 -1.55874 2.12132 -2.12132 
C 1.55874 -2.683901 0.795609 -3 0 -3 
C -0.795609 -3 -1.55874 -2.683901 -2.12132 -2.12132 
C -2.683901 -1.55874 -3 -0.795609 -3 0 
C -3 0.795609 -2.683901 1.55874 -2.12132 2.12132 
C -1.55874 2.683901 -0.795609 3 0 3 
z
" id="C0_0_09f9b17876"/>
    </defs>
    <g clip-path="url(#p5c989c0249)">
     <use style="fill:#029e73;stroke:#ffffff;stroke-width:0.75;" x="554.4" xlink:href="#C0_0_09f9b17876" y="190.433295"/>
    </g>
    <g clip-path="url(#p5c989c0249)">
     <use style="fill:#0173b2;stroke:#ffffff;stroke-width:0.75;" x="141.48" xlink:href="#C0_0_09f9b17876" y="296.728761"/>
    </g>
    <g clip-path="url(#p5c989c0249)">
     <use style="fill:#029e73;stroke:#ffffff;stroke-width:0.75;" x="688.32" xlink:href="#C0_0_09f9b17876" y="90.043134"/>
    </g>
    <g clip-path="url(#p5c989c0249)">
     <use style="fill:#029e73;stroke:#ffffff;stroke-width:0.75;" x="755.28" xlink:href="#C0_0_09f9b17876" y="84.13783"/>
    </g>
    <g clip-path="url(#p5c989c0249)">
     <use style="fill:#029e73;stroke:#ffffff;stroke-width:0.75;" x="654.84" xlink:href="#C0_0_09f9b17876" y="175.670036"/>
    </g>
    <g clip-path="url(#p5c989c0249)">
     <use style="fill:#029e73;stroke:#ffffff;stroke-width:0.75;" x="654.84" xlink:href="#C0_0_09f9b17876" y="78.232526"/>
    </g>
    <g clip-path="url(#p5c989c0249)">
     <use style="fill:#de8f05;stroke:#ffffff;stroke-width:0.75;" x="308.88" xlink:href="#C0_0_09f9b17876" y="219.959813"/>
    </g>
    <g clip-path="url(#p5c989c0249)">
     <use style="fill:#029e73;stroke:#ffffff;stroke-width:0.75;" x="654.84" xlink:href="#C0_0_09f9b17876" y="84.13783"/>
    </g>
    <g clip-path="url(#p5c989c0249)">
     <use style="fill:#029e73;stroke:#ffffff;stroke-width:0.75;" x="554.4" xlink:href="#C0_0_09f9b17876" y="299.681412"/>
    </g>
    <g clip-path="url(#p5c989c0249)">
     <use style="fill:#0173b2;stroke:#ffffff;stroke-width:0.75;" x="141.48" xlink:href="#C0_0_09f9b17876" y="219.959813"/>
    </g>
    <g clip-path="url(#p5c989c0249)">
     <use style="fill:#0173b2;stroke:#ffffff;stroke-width:0.75;" x="141.48" xlink:href="#C0_0_09f9b17876" y="208.149206"/>
    </g>
    <g clip-path="url(#p5c989c0249)">
     <use style="fill:#de8f05;stroke:#ffffff;stroke-width:0.75;" x="398.16" xlink:href="#C0_0_09f9b17876" y="219.959813"/>
    </g>
    <g clip-path="url(#p5c989c0249)">
     <use style="fill:#029e73;stroke:#ffffff;stroke-width:0.75;" x="654.84" xlink:href="#C0_0_09f9b17876" y="90.043134"/>
    </g>
    <g clip-path="url(#p5c989c0249)">
     <use style="fill:#de8f05;stroke:#ffffff;stroke-width:0.75;" x="308.88" xlink:href="#C0_0_09f9b17876" y="261.296939"/>
    </g>
    <g clip-path="url(#p5c989c0249)">
     <use style="fill:#0173b2;stroke:#ffffff;stroke-width:0.75;" x="141.48" xlink:href="#C0_0_09f9b17876" y="217.007162"/>
    </g>
    <g clip-path="url(#p5c989c0249)">
     <use style="fill:#029e73;stroke:#ffffff;stroke-width:0.75;" x="654.84" xlink:href="#C0_0_09f9b17876" y="87.090482"/>
    </g>
    <g clip-path="url(#p5c989c0249)">
     <use style="fill:#029e73;stroke:#ffffff;stroke-width:0.75;" x="654.84" xlink:href="#C0_0_09f9b17876" y="87.090482"/>
    </g>
    <g clip-path="url(#p5c989c0249)">
     <use style="fill:#0173b2;stroke:#ffffff;stroke-width:0.75;" x="141.48" xlink:href="#C0_0_09f9b17876" y="219.959813"/>
    </g>
    <g clip-path="url(#p5c989c0249)">
     <use style="fill:#029e73;stroke:#ffffff;stroke-width:0.75;" x="654.84" xlink:href="#C0_0_09f9b17876" y="134.332911"/>
    </g>
    <g clip-path="url(#p5c989c0249)">
     <use style="fill:#0173b2;stroke:#ffffff;stroke-width:0.75;" x="141.48" xlink:href="#C0_0_09f9b17876" y="219.959813"/>
    </g>
    <g clip-path="url(#p5c989c0249)">
     <use style="fill:#029e73;stroke:#ffffff;stroke-width:0.75;" x="654.84" xlink:href="#C0_0_09f9b17876" y="90.043134"/>
    </g>
    <g clip-path="url(#p5c989c0249)">
     <use style="fill:#de8f05;stroke:#ffffff;stroke-width:0.75;" x="453.96" xlink:href="#C0_0_09f9b17876" y="128.427607"/>
    </g>
    <g clip-path="url(#p5c989c0249)">
     <use style="fill:#029e73;stroke:#ffffff;stroke-width:0.75;" x="688.32" xlink:href="#C0_0_09f9b17876" y="90.043134"/>
    </g>
    <g clip-path="url(#p5c989c0249)">
     <use style="fill:#029e73;stroke:#ffffff;stroke-width:0.75;" x="654.84" xlink:href="#C0_0_09f9b17876" y="78.232526"/>
    </g>
    <g clip-path="url(#p5c989c0249)">
     <use style="fill:#029e73;stroke:#ffffff;stroke-width:0.75;" x="654.84" xlink:href="#C0_0_09f9b17876" y="84.13783"/>
    </g>
    <g clip-path="url(#p5c989c0249)">
     <use style="fill:#de8f05;stroke:#ffffff;stroke-width:0.75;" x="453.96" xlink:href="#C0_0_09f9b17876" y="122.522304"/>
    </g>
    <g clip-path="url(#p5c989c0249)">
     <use style="fill:#029e73;stroke:#ffffff;stroke-width:0.75;" x="554.4" xlink:href="#C0_0_09f9b17876" y="134.332911"/>
    </g>
   </g>
   <g id="PathCollection_3"/>
   <g id="PathCollection_4"/>
   <g id="PathCollection_5"/>
   <g id="PathCollection_6"/>
   <g id="matplotlib.axis_1">
    <g id="xtick_1">
     <g id="line2d_1">
      <defs>
       <path d="M 0 0 
L 0 3.5 
" id="mfeb92b380d" style="stroke:#000000;stroke-width:0.8;"/>
      </defs>
      <g>
       <use style="stroke:#000000;stroke-width:0.8;" x="163.8" xlink:href="#mfeb92b380d" y="315"/>
      </g>
     </g>
     <g id="text_1">
      <!-- 1960 -->
      <defs>
       <path d="M 12.40625 8.296875 
L 28.515625 8.296875 
L 28.515625 63.921875 
L 10.984375 60.40625 
L 10.984375 69.390625 
L 28.421875 72.90625 
L 38.28125 72.90625 
L 38.28125 8.296875 
L 54.390625 8.296875 
L 54.390625 0 
L 12.40625 0 
z
" id="DejaVuSans-49"/>
       <path d="M 10.984375 1.515625 
L 10.984375 10.5 
Q 14.703125 8.734375 18.5 7.8125 
Q 22.3125 6.890625 25.984375 6.890625 
Q 35.75 6.890625 40.890625 13.453125 
Q 46.046875 20.015625 46.78125 33.40625 
Q 43.953125 29.203125 39.59375 26.953125 
Q 35.25 24.703125 29.984375 24.703125 
Q 19.046875 24.703125 12.671875 31.3125 
Q 6.296875 37.9375 6.296875 49.421875 
Q 6.296875 60.640625 12.9375 67.421875 
Q 19.578125 74.21875 30.609375 74.21875 
Q 43.265625 74.21875 49.921875 64.515625 
Q 56.59375 54.828125 56.59375 36.375 
Q 56.59375 19.140625 48.40625 8.859375 
Q 40.234375 -1.421875 26.421875 -1.421875 
Q 22.703125 -1.421875 18.890625 -0.6875 
Q 15.09375 0.046875 10.984375 1.515625 
z
M 30.609375 32.421875 
Q 37.25 32.421875 41.125 36.953125 
Q 45.015625 41.5 45.015625 49.421875 
Q 45.015625 57.28125 41.125 61.84375 
Q 37.25 66.40625 30.609375 66.40625 
Q 23.96875 66.40625 20.09375 61.84375 
Q 16.21875 57.28125 16.21875 49.421875 
Q 16.21875 41.5 20.09375 36.953125 
Q 23.96875 32.421875 30.609375 32.421875 
z
" id="DejaVuSans-57"/>
       <path d="M 33.015625 40.375 
Q 26.375 40.375 22.484375 35.828125 
Q 18.609375 31.296875 18.609375 23.390625 
Q 18.609375 15.53125 22.484375 10.953125 
Q 26.375 6.390625 33.015625 6.390625 
Q 39.65625 6.390625 43.53125 10.953125 
Q 47.40625 15.53125 47.40625 23.390625 
Q 47.40625 31.296875 43.53125 35.828125 
Q 39.65625 40.375 33.015625 40.375 
z
M 52.59375 71.296875 
L 52.59375 62.3125 
Q 48.875 64.0625 45.09375 64.984375 
Q 41.3125 65.921875 37.59375 65.921875 
Q 27.828125 65.921875 22.671875 59.328125 
Q 17.53125 52.734375 16.796875 39.40625 
Q 19.671875 43.65625 24.015625 45.921875 
Q 28.375 48.1875 33.59375 48.1875 
Q 44.578125 48.1875 50.953125 41.515625 
Q 57.328125 34.859375 57.328125 23.390625 
Q 57.328125 12.15625 50.6875 5.359375 
Q 44.046875 -1.421875 33.015625 -1.421875 
Q 20.359375 -1.421875 13.671875 8.265625 
Q 6.984375 17.96875 6.984375 36.375 
Q 6.984375 53.65625 15.1875 63.9375 
Q 23.390625 74.21875 37.203125 74.21875 
Q 40.921875 74.21875 44.703125 73.484375 
Q 48.484375 72.75 52.59375 71.296875 
z
" id="DejaVuSans-54"/>
       <path d="M 31.78125 66.40625 
Q 24.171875 66.40625 20.328125 58.90625 
Q 16.5 51.421875 16.5 36.375 
Q 16.5 21.390625 20.328125 13.890625 
Q 24.171875 6.390625 31.78125 6.390625 
Q 39.453125 6.390625 43.28125 13.890625 
Q 47.125 21.390625 47.125 36.375 
Q 47.125 51.421875 43.28125 58.90625 
Q 39.453125 66.40625 31.78125 66.40625 
z
M 31.78125 74.21875 
Q 44.046875 74.21875 50.515625 64.515625 
Q 56.984375 54.828125 56.984375 36.375 
Q 56.984375 17.96875 50.515625 8.265625 
Q 44.046875 -1.421875 31.78125 -1.421875 
Q 19.53125 -1.421875 13.0625 8.265625 
Q 6.59375 17.96875 6.59375 36.375 
Q 6.59375 54.828125 13.0625 64.515625 
Q 19.53125 74.21875 31.78125 74.21875 
z
" id="DejaVuSans-48"/>
      </defs>
      <g transform="translate(151.075 329.598437)scale(0.1 -0.1)">
       <use xlink:href="#DejaVuSans-49"/>
       <use x="63.623047" xlink:href="#DejaVuSans-57"/>
       <use x="127.246094" xlink:href="#DejaVuSans-54"/>
       <use x="190.869141" xlink:href="#DejaVuSans-48"/>
      </g>
     </g>
    </g>
    <g id="xtick_2">
     <g id="line2d_2">
      <g>
       <use style="stroke:#000000;stroke-width:0.8;" x="275.4" xlink:href="#mfeb92b380d" y="315"/>
      </g>
     </g>
     <g id="text_2">
      <!-- 1970 -->
      <defs>
       <path d="M 8.203125 72.90625 
L 55.078125 72.90625 
L 55.078125 68.703125 
L 28.609375 0 
L 18.3125 0 
L 43.21875 64.59375 
L 8.203125 64.59375 
z
" id="DejaVuSans-55"/>
      </defs>
      <g transform="translate(262.675 329.598437)scale(0.1 -0.1)">
       <use xlink:href="#DejaVuSans-49"/>
       <use x="63.623047" xlink:href="#DejaVuSans-57"/>
       <use x="127.246094" xlink:href="#DejaVuSans-55"/>
       <use x="190.869141" xlink:href="#DejaVuSans-48"/>
      </g>
     </g>
    </g>
    <g id="xtick_3">
     <g id="line2d_3">
      <g>
       <use style="stroke:#000000;stroke-width:0.8;" x="387" xlink:href="#mfeb92b380d" y="315"/>
      </g>
     </g>
     <g id="text_3">
      <!-- 1980 -->
      <defs>
       <path d="M 31.78125 34.625 
Q 24.75 34.625 20.71875 30.859375 
Q 16.703125 27.09375 16.703125 20.515625 
Q 16.703125 13.921875 20.71875 10.15625 
Q 24.75 6.390625 31.78125 6.390625 
Q 38.8125 6.390625 42.859375 10.171875 
Q 46.921875 13.96875 46.921875 20.515625 
Q 46.921875 27.09375 42.890625 30.859375 
Q 38.875 34.625 31.78125 34.625 
z
M 21.921875 38.8125 
Q 15.578125 40.375 12.03125 44.71875 
Q 8.5 49.078125 8.5 55.328125 
Q 8.5 64.0625 14.71875 69.140625 
Q 20.953125 74.21875 31.78125 74.21875 
Q 42.671875 74.21875 48.875 69.140625 
Q 55.078125 64.0625 55.078125 55.328125 
Q 55.078125 49.078125 51.53125 44.71875 
Q 48 40.375 41.703125 38.8125 
Q 48.828125 37.15625 52.796875 32.3125 
Q 56.78125 27.484375 56.78125 20.515625 
Q 56.78125 9.90625 50.3125 4.234375 
Q 43.84375 -1.421875 31.78125 -1.421875 
Q 19.734375 -1.421875 13.25 4.234375 
Q 6.78125 9.90625 6.78125 20.515625 
Q 6.78125 27.484375 10.78125 32.3125 
Q 14.796875 37.15625 21.921875 38.8125 
z
M 18.3125 54.390625 
Q 18.3125 48.734375 21.84375 45.5625 
Q 25.390625 42.390625 31.78125 42.390625 
Q 38.140625 42.390625 41.71875 45.5625 
Q 45.3125 48.734375 45.3125 54.390625 
Q 45.3125 60.0625 41.71875 63.234375 
Q 38.140625 66.40625 31.78125 66.40625 
Q 25.390625 66.40625 21.84375 63.234375 
Q 18.3125 60.0625 18.3125 54.390625 
z
" id="DejaVuSans-56"/>
      </defs>
      <g transform="translate(374.275 329.598437)scale(0.1 -0.1)">
       <use xlink:href="#DejaVuSans-49"/>
       <use x="63.623047" xlink:href="#DejaVuSans-57"/>
       <use x="127.246094" xlink:href="#DejaVuSans-56"/>
       <use x="190.869141" xlink:href="#DejaVuSans-48"/>
      </g>
     </g>
    </g>
    <g id="xtick_4">
     <g id="line2d_4">
      <g>
       <use style="stroke:#000000;stroke-width:0.8;" x="498.6" xlink:href="#mfeb92b380d" y="315"/>
      </g>
     </g>
     <g id="text_4">
      <!-- 1990 -->
      <g transform="translate(485.875 329.598437)scale(0.1 -0.1)">
       <use xlink:href="#DejaVuSans-49"/>
       <use x="63.623047" xlink:href="#DejaVuSans-57"/>
       <use x="127.246094" xlink:href="#DejaVuSans-57"/>
       <use x="190.869141" xlink:href="#DejaVuSans-48"/>
      </g>
     </g>
    </g>
    <g id="xtick_5">
     <g id="line2d_5">
      <g>
       <use style="stroke:#000000;stroke-width:0.8;" x="610.2" xlink:href="#mfeb92b380d" y="315"/>
      </g>
     </g>
     <g id="text_5">
      <!-- 2000 -->
      <defs>
       <path d="M 19.1875 8.296875 
L 53.609375 8.296875 
L 53.609375 0 
L 7.328125 0 
L 7.328125 8.296875 
Q 12.9375 14.109375 22.625 23.890625 
Q 32.328125 33.6875 34.8125 36.53125 
Q 39.546875 41.84375 41.421875 45.53125 
Q 43.3125 49.21875 43.3125 52.78125 
Q 43.3125 58.59375 39.234375 62.25 
Q 35.15625 65.921875 28.609375 65.921875 
Q 23.96875 65.921875 18.8125 64.3125 
Q 13.671875 62.703125 7.8125 59.421875 
L 7.8125 69.390625 
Q 13.765625 71.78125 18.9375 73 
Q 24.125 74.21875 28.421875 74.21875 
Q 39.75 74.21875 46.484375 68.546875 
Q 53.21875 62.890625 53.21875 53.421875 
Q 53.21875 48.921875 51.53125 44.890625 
Q 49.859375 40.875 45.40625 35.40625 
Q 44.1875 33.984375 37.640625 27.21875 
Q 31.109375 20.453125 19.1875 8.296875 
z
" id="DejaVuSans-50"/>
      </defs>
      <g transform="translate(597.475 329.598437)scale(0.1 -0.1)">
       <use xlink:href="#DejaVuSans-50"/>
       <use x="63.623047" xlink:href="#DejaVuSans-48"/>
       <use x="127.246094" xlink:href="#DejaVuSans-48"/>
       <use x="190.869141" xlink:href="#DejaVuSans-48"/>
      </g>
     </g>
    </g>
    <g id="xtick_6">
     <g id="line2d_6">
      <g>
       <use style="stroke:#000000;stroke-width:0.8;" x="721.8" xlink:href="#mfeb92b380d" y="315"/>
      </g>
     </g>
     <g id="text_6">
      <!-- 2010 -->
      <g transform="translate(709.075 329.598437)scale(0.1 -0.1)">
       <use xlink:href="#DejaVuSans-50"/>
       <use x="63.623047" xlink:href="#DejaVuSans-48"/>
       <use x="127.246094" xlink:href="#DejaVuSans-49"/>
       <use x="190.869141" xlink:href="#DejaVuSans-48"/>
      </g>
     </g>
    </g>
    <g id="text_7">
     <!-- Year country joined EU -->
     <defs>
      <path d="M -0.203125 72.90625 
L 10.40625 72.90625 
L 30.609375 42.921875 
L 50.6875 72.90625 
L 61.28125 72.90625 
L 35.5 34.71875 
L 35.5 0 
L 25.59375 0 
L 25.59375 34.71875 
z
" id="DejaVuSans-89"/>
      <path d="M 56.203125 29.59375 
L 56.203125 25.203125 
L 14.890625 25.203125 
Q 15.484375 15.921875 20.484375 11.0625 
Q 25.484375 6.203125 34.421875 6.203125 
Q 39.59375 6.203125 44.453125 7.46875 
Q 49.3125 8.734375 54.109375 11.28125 
L 54.109375 2.78125 
Q 49.265625 0.734375 44.1875 -0.34375 
Q 39.109375 -1.421875 33.890625 -1.421875 
Q 20.796875 -1.421875 13.15625 6.1875 
Q 5.515625 13.8125 5.515625 26.8125 
Q 5.515625 40.234375 12.765625 48.109375 
Q 20.015625 56 32.328125 56 
Q 43.359375 56 49.78125 48.890625 
Q 56.203125 41.796875 56.203125 29.59375 
z
M 47.21875 32.234375 
Q 47.125 39.59375 43.09375 43.984375 
Q 39.0625 48.390625 32.421875 48.390625 
Q 24.90625 48.390625 20.390625 44.140625 
Q 15.875 39.890625 15.1875 32.171875 
z
" id="DejaVuSans-101"/>
      <path d="M 34.28125 27.484375 
Q 23.390625 27.484375 19.1875 25 
Q 14.984375 22.515625 14.984375 16.5 
Q 14.984375 11.71875 18.140625 8.90625 
Q 21.296875 6.109375 26.703125 6.109375 
Q 34.1875 6.109375 38.703125 11.40625 
Q 43.21875 16.703125 43.21875 25.484375 
L 43.21875 27.484375 
z
M 52.203125 31.203125 
L 52.203125 0 
L 43.21875 0 
L 43.21875 8.296875 
Q 40.140625 3.328125 35.546875 0.953125 
Q 30.953125 -1.421875 24.3125 -1.421875 
Q 15.921875 -1.421875 10.953125 3.296875 
Q 6 8.015625 6 15.921875 
Q 6 25.140625 12.171875 29.828125 
Q 18.359375 34.515625 30.609375 34.515625 
L 43.21875 34.515625 
L 43.21875 35.40625 
Q 43.21875 41.609375 39.140625 45 
Q 35.0625 48.390625 27.6875 48.390625 
Q 23 48.390625 18.546875 47.265625 
Q 14.109375 46.140625 10.015625 43.890625 
L 10.015625 52.203125 
Q 14.9375 54.109375 19.578125 55.046875 
Q 24.21875 56 28.609375 56 
Q 40.484375 56 46.34375 49.84375 
Q 52.203125 43.703125 52.203125 31.203125 
z
" id="DejaVuSans-97"/>
      <path d="M 41.109375 46.296875 
Q 39.59375 47.171875 37.8125 47.578125 
Q 36.03125 48 33.890625 48 
Q 26.265625 48 22.1875 43.046875 
Q 18.109375 38.09375 18.109375 28.8125 
L 18.109375 0 
L 9.078125 0 
L 9.078125 54.6875 
L 18.109375 54.6875 
L 18.109375 46.1875 
Q 20.953125 51.171875 25.484375 53.578125 
Q 30.03125 56 36.53125 56 
Q 37.453125 56 38.578125 55.875 
Q 39.703125 55.765625 41.0625 55.515625 
z
" id="DejaVuSans-114"/>
      <path id="DejaVuSans-32"/>
      <path d="M 48.78125 52.59375 
L 48.78125 44.1875 
Q 44.96875 46.296875 41.140625 47.34375 
Q 37.3125 48.390625 33.40625 48.390625 
Q 24.65625 48.390625 19.8125 42.84375 
Q 14.984375 37.3125 14.984375 27.296875 
Q 14.984375 17.28125 19.8125 11.734375 
Q 24.65625 6.203125 33.40625 6.203125 
Q 37.3125 6.203125 41.140625 7.25 
Q 44.96875 8.296875 48.78125 10.40625 
L 48.78125 2.09375 
Q 45.015625 0.34375 40.984375 -0.53125 
Q 36.96875 -1.421875 32.421875 -1.421875 
Q 20.0625 -1.421875 12.78125 6.34375 
Q 5.515625 14.109375 5.515625 27.296875 
Q 5.515625 40.671875 12.859375 48.328125 
Q 20.21875 56 33.015625 56 
Q 37.15625 56 41.109375 55.140625 
Q 45.0625 54.296875 48.78125 52.59375 
z
" id="DejaVuSans-99"/>
      <path d="M 30.609375 48.390625 
Q 23.390625 48.390625 19.1875 42.75 
Q 14.984375 37.109375 14.984375 27.296875 
Q 14.984375 17.484375 19.15625 11.84375 
Q 23.34375 6.203125 30.609375 6.203125 
Q 37.796875 6.203125 41.984375 11.859375 
Q 46.1875 17.53125 46.1875 27.296875 
Q 46.1875 37.015625 41.984375 42.703125 
Q 37.796875 48.390625 30.609375 48.390625 
z
M 30.609375 56 
Q 42.328125 56 49.015625 48.375 
Q 55.71875 40.765625 55.71875 27.296875 
Q 55.71875 13.875 49.015625 6.21875 
Q 42.328125 -1.421875 30.609375 -1.421875 
Q 18.84375 -1.421875 12.171875 6.21875 
Q 5.515625 13.875 5.515625 27.296875 
Q 5.515625 40.765625 12.171875 48.375 
Q 18.84375 56 30.609375 56 
z
" id="DejaVuSans-111"/>
      <path d="M 8.5 21.578125 
L 8.5 54.6875 
L 17.484375 54.6875 
L 17.484375 21.921875 
Q 17.484375 14.15625 20.5 10.265625 
Q 23.53125 6.390625 29.59375 6.390625 
Q 36.859375 6.390625 41.078125 11.03125 
Q 45.3125 15.671875 45.3125 23.6875 
L 45.3125 54.6875 
L 54.296875 54.6875 
L 54.296875 0 
L 45.3125 0 
L 45.3125 8.40625 
Q 42.046875 3.421875 37.71875 1 
Q 33.40625 -1.421875 27.6875 -1.421875 
Q 18.265625 -1.421875 13.375 4.4375 
Q 8.5 10.296875 8.5 21.578125 
z
M 31.109375 56 
z
" id="DejaVuSans-117"/>
      <path d="M 54.890625 33.015625 
L 54.890625 0 
L 45.90625 0 
L 45.90625 32.71875 
Q 45.90625 40.484375 42.875 44.328125 
Q 39.84375 48.1875 33.796875 48.1875 
Q 26.515625 48.1875 22.3125 43.546875 
Q 18.109375 38.921875 18.109375 30.90625 
L 18.109375 0 
L 9.078125 0 
L 9.078125 54.6875 
L 18.109375 54.6875 
L 18.109375 46.1875 
Q 21.34375 51.125 25.703125 53.5625 
Q 30.078125 56 35.796875 56 
Q 45.21875 56 50.046875 50.171875 
Q 54.890625 44.34375 54.890625 33.015625 
z
" id="DejaVuSans-110"/>
      <path d="M 18.3125 70.21875 
L 18.3125 54.6875 
L 36.8125 54.6875 
L 36.8125 47.703125 
L 18.3125 47.703125 
L 18.3125 18.015625 
Q 18.3125 11.328125 20.140625 9.421875 
Q 21.96875 7.515625 27.59375 7.515625 
L 36.8125 7.515625 
L 36.8125 0 
L 27.59375 0 
Q 17.1875 0 13.234375 3.875 
Q 9.28125 7.765625 9.28125 18.015625 
L 9.28125 47.703125 
L 2.6875 47.703125 
L 2.6875 54.6875 
L 9.28125 54.6875 
L 9.28125 70.21875 
z
" id="DejaVuSans-116"/>
      <path d="M 32.171875 -5.078125 
Q 28.375 -14.84375 24.75 -17.8125 
Q 21.140625 -20.796875 15.09375 -20.796875 
L 7.90625 -20.796875 
L 7.90625 -13.28125 
L 13.1875 -13.28125 
Q 16.890625 -13.28125 18.9375 -11.515625 
Q 21 -9.765625 23.484375 -3.21875 
L 25.09375 0.875 
L 2.984375 54.6875 
L 12.5 54.6875 
L 29.59375 11.921875 
L 46.6875 54.6875 
L 56.203125 54.6875 
z
" id="DejaVuSans-121"/>
      <path d="M 9.421875 54.6875 
L 18.40625 54.6875 
L 18.40625 -0.984375 
Q 18.40625 -11.421875 14.421875 -16.109375 
Q 10.453125 -20.796875 1.609375 -20.796875 
L -1.8125 -20.796875 
L -1.8125 -13.1875 
L 0.59375 -13.1875 
Q 5.71875 -13.1875 7.5625 -10.8125 
Q 9.421875 -8.453125 9.421875 -0.984375 
z
M 9.421875 75.984375 
L 18.40625 75.984375 
L 18.40625 64.59375 
L 9.421875 64.59375 
z
" id="DejaVuSans-106"/>
      <path d="M 9.421875 54.6875 
L 18.40625 54.6875 
L 18.40625 0 
L 9.421875 0 
z
M 9.421875 75.984375 
L 18.40625 75.984375 
L 18.40625 64.59375 
L 9.421875 64.59375 
z
" id="DejaVuSans-105"/>
      <path d="M 45.40625 46.390625 
L 45.40625 75.984375 
L 54.390625 75.984375 
L 54.390625 0 
L 45.40625 0 
L 45.40625 8.203125 
Q 42.578125 3.328125 38.25 0.953125 
Q 33.9375 -1.421875 27.875 -1.421875 
Q 17.96875 -1.421875 11.734375 6.484375 
Q 5.515625 14.40625 5.515625 27.296875 
Q 5.515625 40.1875 11.734375 48.09375 
Q 17.96875 56 27.875 56 
Q 33.9375 56 38.25 53.625 
Q 42.578125 51.265625 45.40625 46.390625 
z
M 14.796875 27.296875 
Q 14.796875 17.390625 18.875 11.75 
Q 22.953125 6.109375 30.078125 6.109375 
Q 37.203125 6.109375 41.296875 11.75 
Q 45.40625 17.390625 45.40625 27.296875 
Q 45.40625 37.203125 41.296875 42.84375 
Q 37.203125 48.484375 30.078125 48.484375 
Q 22.953125 48.484375 18.875 42.84375 
Q 14.796875 37.203125 14.796875 27.296875 
z
" id="DejaVuSans-100"/>
      <path d="M 9.8125 72.90625 
L 55.90625 72.90625 
L 55.90625 64.59375 
L 19.671875 64.59375 
L 19.671875 43.015625 
L 54.390625 43.015625 
L 54.390625 34.71875 
L 19.671875 34.71875 
L 19.671875 8.296875 
L 56.78125 8.296875 
L 56.78125 0 
L 9.8125 0 
z
" id="DejaVuSans-69"/>
      <path d="M 8.6875 72.90625 
L 18.609375 72.90625 
L 18.609375 28.609375 
Q 18.609375 16.890625 22.84375 11.734375 
Q 27.09375 6.59375 36.625 6.59375 
Q 46.09375 6.59375 50.34375 11.734375 
Q 54.59375 16.890625 54.59375 28.609375 
L 54.59375 72.90625 
L 64.5 72.90625 
L 64.5 27.390625 
Q 64.5 13.140625 57.4375 5.859375 
Q 50.390625 -1.421875 36.625 -1.421875 
Q 22.796875 -1.421875 15.734375 5.859375 
Q 8.6875 13.140625 8.6875 27.390625 
z
" id="DejaVuSans-85"/>
     </defs>
     <g transform="translate(374.155313 344.79625)scale(0.12 -0.12)">
      <use xlink:href="#DejaVuSans-89"/>
      <use x="60.880859" xlink:href="#DejaVuSans-101"/>
      <use x="122.404297" xlink:href="#DejaVuSans-97"/>
      <use x="183.683594" xlink:href="#DejaVuSans-114"/>
      <use x="224.796875" xlink:href="#DejaVuSans-32"/>
      <use x="256.583984" xlink:href="#DejaVuSans-99"/>
      <use x="311.564453" xlink:href="#DejaVuSans-111"/>
      <use x="372.746094" xlink:href="#DejaVuSans-117"/>
      <use x="436.125" xlink:href="#DejaVuSans-110"/>
      <use x="499.503906" xlink:href="#DejaVuSans-116"/>
      <use x="538.712891" xlink:href="#DejaVuSans-114"/>
      <use x="579.826172" xlink:href="#DejaVuSans-121"/>
      <use x="639.005859" xlink:href="#DejaVuSans-32"/>
      <use x="670.792969" xlink:href="#DejaVuSans-106"/>
      <use x="698.576172" xlink:href="#DejaVuSans-111"/>
      <use x="759.757812" xlink:href="#DejaVuSans-105"/>
      <use x="787.541016" xlink:href="#DejaVuSans-110"/>
      <use x="850.919922" xlink:href="#DejaVuSans-101"/>
      <use x="912.443359" xlink:href="#DejaVuSans-100"/>
      <use x="975.919922" xlink:href="#DejaVuSans-32"/>
      <use x="1007.707031" xlink:href="#DejaVuSans-69"/>
      <use x="1070.890625" xlink:href="#DejaVuSans-85"/>
     </g>
    </g>
   </g>
   <g id="matplotlib.axis_2">
    <g id="ytick_1">
     <g id="line2d_7">
      <defs>
       <path d="M 0 0 
L -3.5 0 
" id="mc5d9e5040b" style="stroke:#000000;stroke-width:0.8;"/>
      </defs>
      <g>
       <use style="stroke:#000000;stroke-width:0.8;" x="108" xlink:href="#mc5d9e5040b" y="293.776109"/>
      </g>
     </g>
     <g id="text_8">
      <!-- 1920 -->
      <g transform="translate(75.55 297.575327)scale(0.1 -0.1)">
       <use xlink:href="#DejaVuSans-49"/>
       <use x="63.623047" xlink:href="#DejaVuSans-57"/>
       <use x="127.246094" xlink:href="#DejaVuSans-50"/>
       <use x="190.869141" xlink:href="#DejaVuSans-48"/>
      </g>
     </g>
    </g>
    <g id="ytick_2">
     <g id="line2d_8">
      <g>
       <use style="stroke:#000000;stroke-width:0.8;" x="108" xlink:href="#mc5d9e5040b" y="234.723072"/>
      </g>
     </g>
     <g id="text_9">
      <!-- 1940 -->
      <defs>
       <path d="M 37.796875 64.3125 
L 12.890625 25.390625 
L 37.796875 25.390625 
z
M 35.203125 72.90625 
L 47.609375 72.90625 
L 47.609375 25.390625 
L 58.015625 25.390625 
L 58.015625 17.1875 
L 47.609375 17.1875 
L 47.609375 0 
L 37.796875 0 
L 37.796875 17.1875 
L 4.890625 17.1875 
L 4.890625 26.703125 
z
" id="DejaVuSans-52"/>
      </defs>
      <g transform="translate(75.55 238.522291)scale(0.1 -0.1)">
       <use xlink:href="#DejaVuSans-49"/>
       <use x="63.623047" xlink:href="#DejaVuSans-57"/>
       <use x="127.246094" xlink:href="#DejaVuSans-52"/>
       <use x="190.869141" xlink:href="#DejaVuSans-48"/>
      </g>
     </g>
    </g>
    <g id="ytick_3">
     <g id="line2d_9">
      <g>
       <use style="stroke:#000000;stroke-width:0.8;" x="108" xlink:href="#mc5d9e5040b" y="175.670036"/>
      </g>
     </g>
     <g id="text_10">
      <!-- 1960 -->
      <g transform="translate(75.55 179.469255)scale(0.1 -0.1)">
       <use xlink:href="#DejaVuSans-49"/>
       <use x="63.623047" xlink:href="#DejaVuSans-57"/>
       <use x="127.246094" xlink:href="#DejaVuSans-54"/>
       <use x="190.869141" xlink:href="#DejaVuSans-48"/>
      </g>
     </g>
    </g>
    <g id="ytick_4">
     <g id="line2d_10">
      <g>
       <use style="stroke:#000000;stroke-width:0.8;" x="108" xlink:href="#mc5d9e5040b" y="116.617"/>
      </g>
     </g>
     <g id="text_11">
      <!-- 1980 -->
      <g transform="translate(75.55 120.416219)scale(0.1 -0.1)">
       <use xlink:href="#DejaVuSans-49"/>
       <use x="63.623047" xlink:href="#DejaVuSans-57"/>
       <use x="127.246094" xlink:href="#DejaVuSans-56"/>
       <use x="190.869141" xlink:href="#DejaVuSans-48"/>
      </g>
     </g>
    </g>
    <g id="ytick_5">
     <g id="line2d_11">
      <g>
       <use style="stroke:#000000;stroke-width:0.8;" x="108" xlink:href="#mc5d9e5040b" y="57.563964"/>
      </g>
     </g>
     <g id="text_12">
      <!-- 2000 -->
      <g transform="translate(75.55 61.363183)scale(0.1 -0.1)">
       <use xlink:href="#DejaVuSans-50"/>
       <use x="63.623047" xlink:href="#DejaVuSans-48"/>
       <use x="127.246094" xlink:href="#DejaVuSans-48"/>
       <use x="190.869141" xlink:href="#DejaVuSans-48"/>
      </g>
     </g>
    </g>
    <g id="text_13">
     <!-- Year modern state was established/restored -->
     <defs>
      <path d="M 52 44.1875 
Q 55.375 50.25 60.0625 53.125 
Q 64.75 56 71.09375 56 
Q 79.640625 56 84.28125 50.015625 
Q 88.921875 44.046875 88.921875 33.015625 
L 88.921875 0 
L 79.890625 0 
L 79.890625 32.71875 
Q 79.890625 40.578125 77.09375 44.375 
Q 74.3125 48.1875 68.609375 48.1875 
Q 61.625 48.1875 57.5625 43.546875 
Q 53.515625 38.921875 53.515625 30.90625 
L 53.515625 0 
L 44.484375 0 
L 44.484375 32.71875 
Q 44.484375 40.625 41.703125 44.40625 
Q 38.921875 48.1875 33.109375 48.1875 
Q 26.21875 48.1875 22.15625 43.53125 
Q 18.109375 38.875 18.109375 30.90625 
L 18.109375 0 
L 9.078125 0 
L 9.078125 54.6875 
L 18.109375 54.6875 
L 18.109375 46.1875 
Q 21.1875 51.21875 25.484375 53.609375 
Q 29.78125 56 35.6875 56 
Q 41.65625 56 45.828125 52.96875 
Q 50 49.953125 52 44.1875 
z
" id="DejaVuSans-109"/>
      <path d="M 44.28125 53.078125 
L 44.28125 44.578125 
Q 40.484375 46.53125 36.375 47.5 
Q 32.28125 48.484375 27.875 48.484375 
Q 21.1875 48.484375 17.84375 46.4375 
Q 14.5 44.390625 14.5 40.28125 
Q 14.5 37.15625 16.890625 35.375 
Q 19.28125 33.59375 26.515625 31.984375 
L 29.59375 31.296875 
Q 39.15625 29.25 43.1875 25.515625 
Q 47.21875 21.78125 47.21875 15.09375 
Q 47.21875 7.46875 41.1875 3.015625 
Q 35.15625 -1.421875 24.609375 -1.421875 
Q 20.21875 -1.421875 15.453125 -0.5625 
Q 10.6875 0.296875 5.421875 2 
L 5.421875 11.28125 
Q 10.40625 8.6875 15.234375 7.390625 
Q 20.0625 6.109375 24.8125 6.109375 
Q 31.15625 6.109375 34.5625 8.28125 
Q 37.984375 10.453125 37.984375 14.40625 
Q 37.984375 18.0625 35.515625 20.015625 
Q 33.0625 21.96875 24.703125 23.78125 
L 21.578125 24.515625 
Q 13.234375 26.265625 9.515625 29.90625 
Q 5.8125 33.546875 5.8125 39.890625 
Q 5.8125 47.609375 11.28125 51.796875 
Q 16.75 56 26.8125 56 
Q 31.78125 56 36.171875 55.265625 
Q 40.578125 54.546875 44.28125 53.078125 
z
" id="DejaVuSans-115"/>
      <path d="M 4.203125 54.6875 
L 13.1875 54.6875 
L 24.421875 12.015625 
L 35.59375 54.6875 
L 46.1875 54.6875 
L 57.421875 12.015625 
L 68.609375 54.6875 
L 77.59375 54.6875 
L 63.28125 0 
L 52.6875 0 
L 40.921875 44.828125 
L 29.109375 0 
L 18.5 0 
z
" id="DejaVuSans-119"/>
      <path d="M 48.6875 27.296875 
Q 48.6875 37.203125 44.609375 42.84375 
Q 40.53125 48.484375 33.40625 48.484375 
Q 26.265625 48.484375 22.1875 42.84375 
Q 18.109375 37.203125 18.109375 27.296875 
Q 18.109375 17.390625 22.1875 11.75 
Q 26.265625 6.109375 33.40625 6.109375 
Q 40.53125 6.109375 44.609375 11.75 
Q 48.6875 17.390625 48.6875 27.296875 
z
M 18.109375 46.390625 
Q 20.953125 51.265625 25.265625 53.625 
Q 29.59375 56 35.59375 56 
Q 45.5625 56 51.78125 48.09375 
Q 58.015625 40.1875 58.015625 27.296875 
Q 58.015625 14.40625 51.78125 6.484375 
Q 45.5625 -1.421875 35.59375 -1.421875 
Q 29.59375 -1.421875 25.265625 0.953125 
Q 20.953125 3.328125 18.109375 8.203125 
L 18.109375 0 
L 9.078125 0 
L 9.078125 75.984375 
L 18.109375 75.984375 
z
" id="DejaVuSans-98"/>
      <path d="M 9.421875 75.984375 
L 18.40625 75.984375 
L 18.40625 0 
L 9.421875 0 
z
" id="DejaVuSans-108"/>
      <path d="M 54.890625 33.015625 
L 54.890625 0 
L 45.90625 0 
L 45.90625 32.71875 
Q 45.90625 40.484375 42.875 44.328125 
Q 39.84375 48.1875 33.796875 48.1875 
Q 26.515625 48.1875 22.3125 43.546875 
Q 18.109375 38.921875 18.109375 30.90625 
L 18.109375 0 
L 9.078125 0 
L 9.078125 75.984375 
L 18.109375 75.984375 
L 18.109375 46.1875 
Q 21.34375 51.125 25.703125 53.5625 
Q 30.078125 56 35.796875 56 
Q 45.21875 56 50.046875 50.171875 
Q 54.890625 44.34375 54.890625 33.015625 
z
" id="DejaVuSans-104"/>
      <path d="M 25.390625 72.90625 
L 33.6875 72.90625 
L 8.296875 -9.28125 
L 0 -9.28125 
z
" id="DejaVuSans-47"/>
     </defs>
     <g transform="translate(69.054375 312.119062)rotate(-90)scale(0.12 -0.12)">
      <use xlink:href="#DejaVuSans-89"/>
      <use x="60.880859" xlink:href="#DejaVuSans-101"/>
      <use x="122.404297" xlink:href="#DejaVuSans-97"/>
      <use x="183.683594" xlink:href="#DejaVuSans-114"/>
      <use x="224.796875" xlink:href="#DejaVuSans-32"/>
      <use x="256.583984" xlink:href="#DejaVuSans-109"/>
      <use x="353.996094" xlink:href="#DejaVuSans-111"/>
      <use x="415.177734" xlink:href="#DejaVuSans-100"/>
      <use x="478.654297" xlink:href="#DejaVuSans-101"/>
      <use x="540.177734" xlink:href="#DejaVuSans-114"/>
      <use x="581.275391" xlink:href="#DejaVuSans-110"/>
      <use x="644.654297" xlink:href="#DejaVuSans-32"/>
      <use x="676.441406" xlink:href="#DejaVuSans-115"/>
      <use x="728.541016" xlink:href="#DejaVuSans-116"/>
      <use x="767.75" xlink:href="#DejaVuSans-97"/>
      <use x="829.029297" xlink:href="#DejaVuSans-116"/>
      <use x="868.238281" xlink:href="#DejaVuSans-101"/>
      <use x="929.761719" xlink:href="#DejaVuSans-32"/>
      <use x="961.548828" xlink:href="#DejaVuSans-119"/>
      <use x="1043.335938" xlink:href="#DejaVuSans-97"/>
      <use x="1104.615234" xlink:href="#DejaVuSans-115"/>
      <use x="1156.714844" xlink:href="#DejaVuSans-32"/>
      <use x="1188.501953" xlink:href="#DejaVuSans-101"/>
      <use x="1250.025391" xlink:href="#DejaVuSans-115"/>
      <use x="1302.125" xlink:href="#DejaVuSans-116"/>
      <use x="1341.333984" xlink:href="#DejaVuSans-97"/>
      <use x="1402.613281" xlink:href="#DejaVuSans-98"/>
      <use x="1466.089844" xlink:href="#DejaVuSans-108"/>
      <use x="1493.873047" xlink:href="#DejaVuSans-105"/>
      <use x="1521.65625" xlink:href="#DejaVuSans-115"/>
      <use x="1573.755859" xlink:href="#DejaVuSans-104"/>
      <use x="1637.134766" xlink:href="#DejaVuSans-101"/>
      <use x="1698.658203" xlink:href="#DejaVuSans-100"/>
      <use x="1762.134766" xlink:href="#DejaVuSans-47"/>
      <use x="1795.826172" xlink:href="#DejaVuSans-114"/>
      <use x="1836.908203" xlink:href="#DejaVuSans-101"/>
      <use x="1898.431641" xlink:href="#DejaVuSans-115"/>
      <use x="1950.53125" xlink:href="#DejaVuSans-116"/>
      <use x="1989.740234" xlink:href="#DejaVuSans-111"/>
      <use x="2050.921875" xlink:href="#DejaVuSans-114"/>
      <use x="2092.003906" xlink:href="#DejaVuSans-101"/>
      <use x="2153.527344" xlink:href="#DejaVuSans-100"/>
     </g>
    </g>
   </g>
   <g id="line2d_12">
    <path clip-path="url(#p5c989c0249)" d="M 110.785901 252.589161 
L 117.605983 250.832248 
L 124.426066 249.075335 
L 131.246149 247.318422 
L 138.066232 245.561509 
L 144.886315 243.804597 
L 151.706397 242.047684 
L 158.52648 240.290771 
L 165.346563 238.533858 
L 172.166646 236.776945 
L 178.986729 235.020032 
L 185.806812 233.263119 
L 192.626894 231.506207 
L 199.446977 229.749294 
L 206.26706 227.992381 
L 213.087143 226.235468 
L 219.907226 224.478555 
L 226.727308 222.721642 
L 233.547391 220.964729 
L 240.367474 219.207817 
L 247.187557 217.450904 
L 254.00764 215.693991 
L 260.827723 213.937078 
L 267.647805 212.180165 
L 274.467888 210.423252 
L 281.287971 208.66634 
L 288.108054 206.909427 
L 294.928137 205.152514 
L 301.748219 203.395601 
L 308.568302 201.638688 
L 315.388385 199.881775 
L 322.208468 198.124862 
L 329.028551 196.36795 
L 335.848634 194.611037 
L 342.668716 192.854124 
L 349.488799 191.097211 
L 356.308882 189.340298 
L 363.128965 187.583385 
L 369.949048 185.826472 
L 376.76913 184.06956 
L 383.589213 182.312647 
L 390.409296 180.555734 
L 397.229379 178.798821 
L 404.049462 177.041908 
L 410.869545 175.284995 
L 417.689627 173.528082 
L 424.50971 171.77117 
L 431.329793 170.014257 
L 438.149876 168.257344 
L 444.969959 166.500431 
L 451.790041 164.743518 
L 458.610124 162.986605 
L 465.430207 161.229692 
L 472.25029 159.47278 
L 479.070373 157.715867 
L 485.890455 155.958954 
L 492.710538 154.202041 
L 499.530621 152.445128 
L 506.350704 150.688215 
L 513.170787 148.931303 
L 519.99087 147.17439 
L 526.810952 145.417477 
L 533.631035 143.660564 
L 540.451118 141.903651 
L 547.271201 140.146738 
L 554.091284 138.389825 
L 560.911366 136.632913 
L 567.731449 134.876 
L 574.551532 133.119087 
L 581.371615 131.362174 
L 588.191698 129.605261 
L 595.011781 127.848348 
L 601.831863 126.091435 
L 608.651946 124.334523 
L 615.472029 122.57761 
L 622.292112 120.820697 
L 629.112195 119.063784 
L 635.932277 117.306871 
L 642.75236 115.549958 
L 649.572443 113.793045 
L 656.392526 112.036133 
L 663.212609 110.27922 
L 670.032692 108.522307 
L 676.852774 106.765394 
L 683.672857 105.008481 
L 690.49294 103.251568 
L 697.313023 101.494655 
L 704.133106 99.737743 
L 710.953188 97.98083 
L 717.773271 96.223917 
L 724.593354 94.467004 
L 731.413437 92.710091 
L 738.23352 90.953178 
L 745.053603 89.196265 
L 751.873685 87.439353 
L 758.693768 85.68244 
L 765.513851 83.925527 
L 772.333934 82.168614 
L 779.154017 80.411701 
L 785.974099 78.654788 
" style="fill:none;stroke:#808080;stroke-linecap:square;stroke-width:2.25;"/>
   </g>
   <g id="patch_3">
    <path d="M 108 315 
L 108 43.2 
" style="fill:none;stroke:#000000;stroke-linecap:square;stroke-linejoin:miter;stroke-width:0.8;"/>
   </g>
   <g id="patch_4">
    <path d="M 777.6 315 
L 777.6 43.2 
" style="fill:none;stroke:#000000;stroke-linecap:square;stroke-linejoin:miter;stroke-width:0.8;"/>
   </g>
   <g id="patch_5">
    <path d="M 108 315 
L 777.6 315 
" style="fill:none;stroke:#000000;stroke-linecap:square;stroke-linejoin:miter;stroke-width:0.8;"/>
   </g>
   <g id="patch_6">
    <path d="M 108 43.2 
L 777.6 43.2 
" style="fill:none;stroke:#000000;stroke-linecap:square;stroke-linejoin:miter;stroke-width:0.8;"/>
   </g>
   <g id="legend_1">
    <g id="patch_7">
     <path d="M 115 109.9125 
L 242.60625 109.9125 
Q 244.60625 109.9125 244.60625 107.9125 
L 244.60625 50.2 
Q 244.60625 48.2 242.60625 48.2 
L 115 48.2 
Q 113 48.2 113 50.2 
L 113 107.9125 
Q 113 109.9125 115 109.9125 
z
" style="fill:#ffffff;opacity:0.8;stroke:#cccccc;stroke-linejoin:miter;"/>
    </g>
    <g id="PathCollection_7">
     <defs>
      <path id="m07517d94ad" style="stroke:#ffffff;stroke-width:1.5;"/>
     </defs>
     <g>
      <use style="fill:#ffffff;stroke:#ffffff;stroke-width:1.5;" x="127" xlink:href="#m07517d94ad" y="57.173437"/>
     </g>
    </g>
    <g id="text_14">
     <!-- Join Period -->
     <defs>
      <path d="M 9.8125 72.90625 
L 19.671875 72.90625 
L 19.671875 5.078125 
Q 19.671875 -8.109375 14.671875 -14.0625 
Q 9.671875 -20.015625 -1.421875 -20.015625 
L -5.171875 -20.015625 
L -5.171875 -11.71875 
L -2.09375 -11.71875 
Q 4.4375 -11.71875 7.125 -8.046875 
Q 9.8125 -4.390625 9.8125 5.078125 
z
" id="DejaVuSans-74"/>
      <path d="M 19.671875 64.796875 
L 19.671875 37.40625 
L 32.078125 37.40625 
Q 38.96875 37.40625 42.71875 40.96875 
Q 46.484375 44.53125 46.484375 51.125 
Q 46.484375 57.671875 42.71875 61.234375 
Q 38.96875 64.796875 32.078125 64.796875 
z
M 9.8125 72.90625 
L 32.078125 72.90625 
Q 44.34375 72.90625 50.609375 67.359375 
Q 56.890625 61.8125 56.890625 51.125 
Q 56.890625 40.328125 50.609375 34.8125 
Q 44.34375 29.296875 32.078125 29.296875 
L 19.671875 29.296875 
L 19.671875 0 
L 9.8125 0 
z
" id="DejaVuSans-80"/>
     </defs>
     <g transform="translate(145 59.798437)scale(0.1 -0.1)">
      <use xlink:href="#DejaVuSans-74"/>
      <use x="29.492188" xlink:href="#DejaVuSans-111"/>
      <use x="90.673828" xlink:href="#DejaVuSans-105"/>
      <use x="118.457031" xlink:href="#DejaVuSans-110"/>
      <use x="181.835938" xlink:href="#DejaVuSans-32"/>
      <use x="213.623047" xlink:href="#DejaVuSans-80"/>
      <use x="273.878906" xlink:href="#DejaVuSans-101"/>
      <use x="335.402344" xlink:href="#DejaVuSans-114"/>
      <use x="376.515625" xlink:href="#DejaVuSans-105"/>
      <use x="404.298828" xlink:href="#DejaVuSans-111"/>
      <use x="465.480469" xlink:href="#DejaVuSans-100"/>
     </g>
    </g>
    <g id="PathCollection_8">
     <defs>
      <path d="M 0 3 
C 0.795609 3 1.55874 2.683901 2.12132 2.12132 
C 2.683901 1.55874 3 0.795609 3 0 
C 3 -0.795609 2.683901 -1.55874 2.12132 -2.12132 
C 1.55874 -2.683901 0.795609 -3 0 -3 
C -0.795609 -3 -1.55874 -2.683901 -2.12132 -2.12132 
C -2.683901 -1.55874 -3 -0.795609 -3 0 
C -3 0.795609 -2.683901 1.55874 -2.12132 2.12132 
C -1.55874 2.683901 -0.795609 3 0 3 
z
" id="m5a6fe1bfe1" style="stroke:#0173b2;"/>
     </defs>
     <g>
      <use style="fill:#0173b2;stroke:#0173b2;" x="127" xlink:href="#m5a6fe1bfe1" y="71.851562"/>
     </g>
    </g>
    <g id="text_15">
     <!-- Founders -->
     <defs>
      <path d="M 9.8125 72.90625 
L 51.703125 72.90625 
L 51.703125 64.59375 
L 19.671875 64.59375 
L 19.671875 43.109375 
L 48.578125 43.109375 
L 48.578125 34.8125 
L 19.671875 34.8125 
L 19.671875 0 
L 9.8125 0 
z
" id="DejaVuSans-70"/>
     </defs>
     <g transform="translate(145 74.476562)scale(0.1 -0.1)">
      <use xlink:href="#DejaVuSans-70"/>
      <use x="57.472656" xlink:href="#DejaVuSans-111"/>
      <use x="118.654297" xlink:href="#DejaVuSans-117"/>
      <use x="182.033203" xlink:href="#DejaVuSans-110"/>
      <use x="245.412109" xlink:href="#DejaVuSans-100"/>
      <use x="308.888672" xlink:href="#DejaVuSans-101"/>
      <use x="370.412109" xlink:href="#DejaVuSans-114"/>
      <use x="411.525391" xlink:href="#DejaVuSans-115"/>
     </g>
    </g>
    <g id="PathCollection_9">
     <defs>
      <path d="M 0 3 
C 0.795609 3 1.55874 2.683901 2.12132 2.12132 
C 2.683901 1.55874 3 0.795609 3 0 
C 3 -0.795609 2.683901 -1.55874 2.12132 -2.12132 
C 1.55874 -2.683901 0.795609 -3 0 -3 
C -0.795609 -3 -1.55874 -2.683901 -2.12132 -2.12132 
C -2.683901 -1.55874 -3 -0.795609 -3 0 
C -3 0.795609 -2.683901 1.55874 -2.12132 2.12132 
C -1.55874 2.683901 -0.795609 3 0 3 
z
" id="m8cb8dbefcc" style="stroke:#de8f05;"/>
     </defs>
     <g>
      <use style="fill:#de8f05;stroke:#de8f05;" x="127" xlink:href="#m8cb8dbefcc" y="86.529687"/>
     </g>
    </g>
    <g id="text_16">
     <!-- Cold War -->
     <defs>
      <path d="M 64.40625 67.28125 
L 64.40625 56.890625 
Q 59.421875 61.53125 53.78125 63.8125 
Q 48.140625 66.109375 41.796875 66.109375 
Q 29.296875 66.109375 22.65625 58.46875 
Q 16.015625 50.828125 16.015625 36.375 
Q 16.015625 21.96875 22.65625 14.328125 
Q 29.296875 6.6875 41.796875 6.6875 
Q 48.140625 6.6875 53.78125 8.984375 
Q 59.421875 11.28125 64.40625 15.921875 
L 64.40625 5.609375 
Q 59.234375 2.09375 53.4375 0.328125 
Q 47.65625 -1.421875 41.21875 -1.421875 
Q 24.65625 -1.421875 15.125 8.703125 
Q 5.609375 18.84375 5.609375 36.375 
Q 5.609375 53.953125 15.125 64.078125 
Q 24.65625 74.21875 41.21875 74.21875 
Q 47.75 74.21875 53.53125 72.484375 
Q 59.328125 70.75 64.40625 67.28125 
z
" id="DejaVuSans-67"/>
      <path d="M 3.328125 72.90625 
L 13.28125 72.90625 
L 28.609375 11.28125 
L 43.890625 72.90625 
L 54.984375 72.90625 
L 70.3125 11.28125 
L 85.59375 72.90625 
L 95.609375 72.90625 
L 77.296875 0 
L 64.890625 0 
L 49.515625 63.28125 
L 33.984375 0 
L 21.578125 0 
z
" id="DejaVuSans-87"/>
     </defs>
     <g transform="translate(145 89.154687)scale(0.1 -0.1)">
      <use xlink:href="#DejaVuSans-67"/>
      <use x="69.824219" xlink:href="#DejaVuSans-111"/>
      <use x="131.005859" xlink:href="#DejaVuSans-108"/>
      <use x="158.789062" xlink:href="#DejaVuSans-100"/>
      <use x="222.265625" xlink:href="#DejaVuSans-32"/>
      <use x="254.052734" xlink:href="#DejaVuSans-87"/>
      <use x="352.835938" xlink:href="#DejaVuSans-97"/>
      <use x="414.115234" xlink:href="#DejaVuSans-114"/>
     </g>
    </g>
    <g id="PathCollection_10">
     <defs>
      <path d="M 0 3 
C 0.795609 3 1.55874 2.683901 2.12132 2.12132 
C 2.683901 1.55874 3 0.795609 3 0 
C 3 -0.795609 2.683901 -1.55874 2.12132 -2.12132 
C 1.55874 -2.683901 0.795609 -3 0 -3 
C -0.795609 -3 -1.55874 -2.683901 -2.12132 -2.12132 
C -2.683901 -1.55874 -3 -0.795609 -3 0 
C -3 0.795609 -2.683901 1.55874 -2.12132 2.12132 
C -1.55874 2.683901 -0.795609 3 0 3 
z
" id="m7930251f06" style="stroke:#029e73;"/>
     </defs>
     <g>
      <use style="fill:#029e73;stroke:#029e73;" x="127" xlink:href="#m7930251f06" y="101.207812"/>
     </g>
    </g>
    <g id="text_17">
     <!-- Post USSR collapse -->
     <defs>
      <path d="M 53.515625 70.515625 
L 53.515625 60.890625 
Q 47.90625 63.578125 42.921875 64.890625 
Q 37.9375 66.21875 33.296875 66.21875 
Q 25.25 66.21875 20.875 63.09375 
Q 16.5 59.96875 16.5 54.203125 
Q 16.5 49.359375 19.40625 46.890625 
Q 22.3125 44.4375 30.421875 42.921875 
L 36.375 41.703125 
Q 47.40625 39.59375 52.65625 34.296875 
Q 57.90625 29 57.90625 20.125 
Q 57.90625 9.515625 50.796875 4.046875 
Q 43.703125 -1.421875 29.984375 -1.421875 
Q 24.8125 -1.421875 18.96875 -0.25 
Q 13.140625 0.921875 6.890625 3.21875 
L 6.890625 13.375 
Q 12.890625 10.015625 18.65625 8.296875 
Q 24.421875 6.59375 29.984375 6.59375 
Q 38.421875 6.59375 43.015625 9.90625 
Q 47.609375 13.234375 47.609375 19.390625 
Q 47.609375 24.75 44.3125 27.78125 
Q 41.015625 30.8125 33.5 32.328125 
L 27.484375 33.5 
Q 16.453125 35.6875 11.515625 40.375 
Q 6.59375 45.0625 6.59375 53.421875 
Q 6.59375 63.09375 13.40625 68.65625 
Q 20.21875 74.21875 32.171875 74.21875 
Q 37.3125 74.21875 42.625 73.28125 
Q 47.953125 72.359375 53.515625 70.515625 
z
" id="DejaVuSans-83"/>
      <path d="M 44.390625 34.1875 
Q 47.5625 33.109375 50.5625 29.59375 
Q 53.5625 26.078125 56.59375 19.921875 
L 66.609375 0 
L 56 0 
L 46.6875 18.703125 
Q 43.0625 26.03125 39.671875 28.421875 
Q 36.28125 30.8125 30.421875 30.8125 
L 19.671875 30.8125 
L 19.671875 0 
L 9.8125 0 
L 9.8125 72.90625 
L 32.078125 72.90625 
Q 44.578125 72.90625 50.734375 67.671875 
Q 56.890625 62.453125 56.890625 51.90625 
Q 56.890625 45.015625 53.6875 40.46875 
Q 50.484375 35.9375 44.390625 34.1875 
z
M 19.671875 64.796875 
L 19.671875 38.921875 
L 32.078125 38.921875 
Q 39.203125 38.921875 42.84375 42.21875 
Q 46.484375 45.515625 46.484375 51.90625 
Q 46.484375 58.296875 42.84375 61.546875 
Q 39.203125 64.796875 32.078125 64.796875 
z
" id="DejaVuSans-82"/>
      <path d="M 18.109375 8.203125 
L 18.109375 -20.796875 
L 9.078125 -20.796875 
L 9.078125 54.6875 
L 18.109375 54.6875 
L 18.109375 46.390625 
Q 20.953125 51.265625 25.265625 53.625 
Q 29.59375 56 35.59375 56 
Q 45.5625 56 51.78125 48.09375 
Q 58.015625 40.1875 58.015625 27.296875 
Q 58.015625 14.40625 51.78125 6.484375 
Q 45.5625 -1.421875 35.59375 -1.421875 
Q 29.59375 -1.421875 25.265625 0.953125 
Q 20.953125 3.328125 18.109375 8.203125 
z
M 48.6875 27.296875 
Q 48.6875 37.203125 44.609375 42.84375 
Q 40.53125 48.484375 33.40625 48.484375 
Q 26.265625 48.484375 22.1875 42.84375 
Q 18.109375 37.203125 18.109375 27.296875 
Q 18.109375 17.390625 22.1875 11.75 
Q 26.265625 6.109375 33.40625 6.109375 
Q 40.53125 6.109375 44.609375 11.75 
Q 48.6875 17.390625 48.6875 27.296875 
z
" id="DejaVuSans-112"/>
     </defs>
     <g transform="translate(145 103.832812)scale(0.1 -0.1)">
      <use xlink:href="#DejaVuSans-80"/>
      <use x="60.255859" xlink:href="#DejaVuSans-111"/>
      <use x="121.4375" xlink:href="#DejaVuSans-115"/>
      <use x="173.537109" xlink:href="#DejaVuSans-116"/>
      <use x="212.746094" xlink:href="#DejaVuSans-32"/>
      <use x="244.533203" xlink:href="#DejaVuSans-85"/>
      <use x="317.726562" xlink:href="#DejaVuSans-83"/>
      <use x="381.203125" xlink:href="#DejaVuSans-83"/>
      <use x="444.679688" xlink:href="#DejaVuSans-82"/>
      <use x="514.162109" xlink:href="#DejaVuSans-32"/>
      <use x="545.949219" xlink:href="#DejaVuSans-99"/>
      <use x="600.929688" xlink:href="#DejaVuSans-111"/>
      <use x="662.111328" xlink:href="#DejaVuSans-108"/>
      <use x="689.894531" xlink:href="#DejaVuSans-108"/>
      <use x="717.677734" xlink:href="#DejaVuSans-97"/>
      <use x="778.957031" xlink:href="#DejaVuSans-112"/>
      <use x="842.433594" xlink:href="#DejaVuSans-115"/>
      <use x="894.533203" xlink:href="#DejaVuSans-101"/>
     </g>
    </g>
   </g>
  </g>
 </g>
 <defs>
  <clipPath id="p5c989c0249">
   <rect height="271.8" width="669.6" x="108" y="43.2"/>
  </clipPath>
 </defs>
</svg>
